# xmcd
#
# Track frame offsets:
#	150
#	17507
#	48189
#
# Disc length: 1050 seconds
#
# Revision: 0
# Processed by: cddbd v1.5.1PL0 Copyright (c) Steve Scherf et al.
# Submitted via: audiograbber 1.83.01
#
DISCID=16041803
DTITLE=T.S. - Are You Ready To Fly [CD-Single)
DYEAR=1999
DGENRE=
TTITLE0=Are You Ready To Fly (Radio Mix)
TTITLE1=Are You Ready To Fly (Extended Version)
TTITLE2=Are You Ready To Fly (Club Mix)
EXTD=
EXTT0=
EXTT1=
EXTT2=
PLAYORDER=
